<?xml version="1.0" encoding="UTF-8"?>
<svg xmlns="http://www.w3.org/2000/svg" xmlns:xlink="http://www.w3.org/1999/xlink" width="465px" height="180px" viewBox="0 0 465 180" version="1.1">
<g id="surface1">
<path style=" stroke:none;fill-rule:nonzero;fill:rgb(0%,0%,0%);fill-opacity:1;" d="M 382.839844 172.382812 C 380.589844 171.644531 378.667969 169.921875 377.554688 167.660156 C 376.675781 165.878906 376.558594 165.246094 376.558594 162.292969 C 376.558594 159.328125 376.675781 158.707031 377.554688 156.925781 C 379.675781 152.601562 384.082031 150.785156 388.933594 152.226562 C 392.671875 153.351562 394.96875 156.609375 395.320312 161.308594 C 395.8125 167.8125 392.308594 172.382812 386.542969 172.734375 C 385.242188 172.816406 383.707031 172.664062 382.839844 172.382812 Z M 389.695312 169.125 C 391.40625 167.765625 392.273438 165.972656 392.519531 163.359375 C 392.882812 159.351562 391.382812 156.128906 388.59375 154.851562 C 384.949219 153.199219 380.871094 155.0625 379.734375 158.90625 C 377.847656 165.234375 380.988281 170.648438 386.34375 170.308594 C 387.949219 170.214844 388.640625 169.957031 389.695312 169.125 Z M 381.328125 131.167969 L 381.328125 112.746094 L 380.390625 114.070312 C 379.3125 115.570312 379.171875 115.617188 378.410156 114.773438 C 377.894531 114.199219 378.035156 113.894531 380.332031 110.71875 C 381.691406 108.820312 382.910156 107.285156 383.039062 107.285156 C 383.15625 107.296875 383.566406 107.53125 383.929688 107.800781 C 384.574219 108.292969 384.539062 108.386719 383.132812 110.261719 C 381.667969 112.195312 381.65625 112.21875 382.546875 112.21875 L 383.4375 112.21875 L 383.4375 149.601562 L 381.328125 149.601562 Z M 388.382812 132.316406 C 388.382812 122.8125 388.3125 115.03125 388.21875 115.03125 C 388.136719 115.03125 387.679688 115.183594 387.210938 115.359375 C 386.484375 115.640625 386.296875 115.558594 385.96875 114.84375 C 385.652344 114.140625 385.6875 113.929688 386.179688 113.671875 C 387.503906 112.957031 415.558594 100.570312 415.828125 100.570312 C 415.992188 100.570312 416.285156 100.933594 416.496094 101.378906 C 416.847656 102.164062 416.53125 102.339844 403.769531 108 L 390.667969 113.824219 L 390.574219 131.707031 L 390.492188 149.601562 L 388.382812 149.601562 Z M 194.414062 102.691406 L 194.414062 92.460938 L 197.414062 92.484375 L 202.605469 100.324219 L 207.808594 108.152344 L 207.808594 92.460938 L 210.632812 92.460938 L 210.632812 112.921875 L 207.632812 112.898438 L 202.441406 105.058594 L 197.238281 97.230469 L 197.238281 112.921875 L 194.414062 112.921875 Z M 295.628906 102.691406 L 295.628906 92.460938 L 298.628906 92.484375 L 303.820312 100.324219 L 309.023438 108.152344 L 309.023438 92.460938 L 311.847656 92.460938 L 311.847656 112.921875 L 308.847656 112.898438 L 303.65625 105.058594 L 298.453125 97.230469 L 298.453125 112.921875 L 295.628906 112.921875 Z M 96.960938 99.949219 L 76.300781 88.054688 L 76.195312 64.628906 L 76.089844 41.191406 L 62.0625 33.105469 C 48.375 25.21875 48.046875 24.996094 48.539062 24.269531 C 48.820312 23.859375 49.195312 23.542969 49.371094 23.589844 C 49.546875 23.625 55.910156 27.246094 63.492188 31.628906 L 77.296875 39.609375 L 97.300781 28.066406 C 108.304688 21.714844 117.492188 16.523438 117.703125 16.523438 C 117.925781 16.523438 127.089844 21.703125 138.070312 28.042969 C 149.050781 34.382812 158.15625 39.5625 158.296875 39.5625 C 158.4375 39.5625 165.691406 37.253906 174.410156 34.417969 C 190.628906 29.15625 191.085938 29.050781 190.792969 30.726562 C 190.734375 31.066406 185.402344 32.953125 174.925781 36.351562 L 159.140625 41.460938 L 159.140625 86.660156 L 165.761719 88.839844 C 169.394531 90.035156 176.601562 92.378906 181.769531 94.054688 C 190.230469 96.785156 191.144531 97.160156 190.980469 97.78125 C 190.886719 98.15625 190.652344 98.554688 190.488281 98.671875 C 190.3125 98.777344 183.046875 96.550781 174.339844 93.726562 C 165.632812 90.902344 158.414062 88.582031 158.296875 88.582031 C 158.179688 88.582031 149.308594 93.644531 138.597656 99.820312 C 127.886719 105.996094 118.78125 111.234375 118.371094 111.445312 C 117.726562 111.785156 115.054688 110.355469 96.960938 99.949219 Z M 143.800781 94.535156 L 156.855469 87 L 156.855469 41.179688 L 137.460938 29.976562 C 126.785156 23.8125 117.902344 18.773438 117.703125 18.773438 C 117.515625 18.773438 108.621094 23.8125 97.957031 29.976562 L 78.5625 41.191406 L 78.5625 86.988281 L 98.132812 98.285156 L 117.703125 109.59375 L 124.230469 105.832031 C 127.816406 103.757812 136.628906 98.671875 143.800781 94.535156 Z M 117.632812 102.597656 C 117.257812 101.789062 117.679688 101.519531 133.699219 92.296875 C 142.746094 87.082031 150.257812 82.769531 150.375 82.710938 C 150.503906 82.652344 150.84375 82.957031 151.136719 83.414062 C 151.664062 84.222656 151.652344 84.234375 135.398438 93.609375 C 126.445312 98.777344 118.863281 103.101562 118.558594 103.21875 C 118.195312 103.347656 117.878906 103.136719 117.632812 102.597656 Z M 83.320312 64.078125 L 83.320312 44.859375 L 85.441406 44.859375 L 85.441406 83.296875 L 83.320312 83.296875 Z M 133.699219 35.941406 C 117.644531 26.625 117.257812 26.378906 117.632812 25.558594 C 117.867188 25.042969 118.207031 24.796875 118.523438 24.925781 C 118.816406 25.03125 126.386719 29.355469 135.351562 34.535156 C 151.617188 43.910156 151.664062 43.945312 151.136719 44.753906 C 150.84375 45.199219 150.503906 45.539062 150.375 45.527344 C 150.257812 45.503906 142.746094 41.191406 133.699219 35.941406 Z M 374.15625 110.871094 C 373.628906 110.285156 373.722656 110.050781 375.609375 107.367188 C 376.710938 105.785156 377.789062 104.472656 378 104.472656 C 378.199219 104.460938 378.644531 104.648438 378.972656 104.894531 C 379.523438 105.304688 379.382812 105.621094 377.367188 108.421875 C 376.148438 110.109375 375.058594 111.492188 374.941406 111.503906 C 374.824219 111.503906 374.472656 111.222656 374.15625 110.871094 Z M 369.761719 107.214844 C 369.117188 106.570312 369.1875 106.417969 371.121094 103.746094 C 372.878906 101.332031 372.914062 101.296875 373.757812 101.847656 L 374.601562 102.410156 L 372.761719 104.90625 C 370.757812 107.601562 370.417969 107.859375 369.761719 107.214844 Z M 425.15625 106.78125 C 422.917969 106.054688 420.984375 104.332031 419.871094 102.058594 C 419.003906 100.289062 418.886719 99.65625 418.886719 96.691406 C 418.886719 93.738281 419.003906 93.105469 419.871094 91.324219 C 421.992188 87 426.398438 85.183594 431.25 86.636719 C 434.988281 87.75 437.285156 91.019531 437.648438 95.707031 C 438.140625 102.210938 434.625 106.792969 428.859375 107.132812 C 427.558594 107.214844 426.023438 107.074219 425.15625 106.78125 Z M 432.011719 103.523438 C 433.722656 102.164062 434.601562 100.371094 434.835938 97.757812 C 435.199219 93.761719 433.710938 90.527344 430.910156 89.261719 C 427.265625 87.609375 423.1875 89.460938 422.050781 93.304688 C 420.175781 99.632812 423.316406 105.058594 428.660156 104.71875 C 430.265625 104.613281 430.957031 104.367188 432.011719 103.523438 Z M 441.28125 96.691406 L 441.28125 86.472656 L 444.09375 86.472656 L 444.09375 94.933594 L 454.675781 94.933594 L 454.675781 86.472656 L 457.5 86.472656 L 457.5 106.921875 L 454.675781 106.921875 L 454.675781 97.40625 L 444.09375 97.40625 L 444.09375 106.921875 L 441.28125 106.921875 Z M 365.53125 103.324219 L 364.804688 102.585938 L 366.257812 100.617188 C 367.066406 99.527344 367.746094 98.578125 367.792969 98.519531 C 367.828125 98.460938 368.273438 98.625 368.777344 98.882812 L 369.679688 99.363281 L 367.96875 101.707031 L 366.269531 104.050781 Z M 361.054688 99.386719 C 360.433594 98.929688 360.457031 98.835938 361.582031 97.277344 C 362.847656 95.507812 363.011719 95.425781 364.007812 96.046875 C 364.640625 96.445312 364.605469 96.5625 363.398438 98.167969 C 362.707031 99.105469 362.039062 99.867188 361.921875 99.867188 C 361.804688 99.867188 361.417969 99.65625 361.054688 99.386719 Z M 315.433594 98.109375 L 315.09375 97.148438 L 331.277344 91.898438 L 347.472656 86.648438 L 347.460938 64.078125 L 347.460938 41.507812 L 331.335938 36.28125 C 322.464844 33.410156 315.175781 31.019531 315.128906 30.972656 C 314.871094 30.714844 315.539062 29.332031 315.925781 29.332031 C 316.183594 29.332031 323.273438 31.570312 331.664062 34.289062 C 340.066406 37.019531 347.460938 39.410156 348.082031 39.609375 L 349.230469 39.972656 L 349.230469 88.195312 L 342.621094 90.316406 C 338.988281 91.488281 331.453125 93.9375 325.886719 95.753906 L 315.761719 99.058594 Z M 356.824219 95.648438 C 356.203125 94.96875 356.214844 94.898438 357.011719 93.738281 C 357.738281 92.683594 357.925781 92.589844 358.640625 92.917969 C 359.097656 93.117188 359.460938 93.375 359.460938 93.492188 C 359.460938 93.738281 357.726562 96.339844 357.5625 96.339844 C 357.503906 96.339844 357.164062 96.023438 356.824219 95.648438 Z M 352.535156 91.804688 C 351.808594 91.207031 351.808594 91.148438 352.394531 90.375 C 352.910156 89.683594 353.109375 89.625 353.765625 89.964844 C 354.667969 90.457031 354.691406 90.644531 353.894531 91.652344 C 353.308594 92.390625 353.261719 92.402344 352.535156 91.804688 Z M 211.078125 90 L 210.304688 89.367188 L 219.457031 76.757812 C 224.496094 69.820312 228.503906 63.984375 228.363281 63.761719 C 228.1875 63.457031 211.441406 40.265625 210.257812 38.683594 C 210.117188 38.484375 210.351562 38.0625 210.785156 37.734375 C 211.582031 37.148438 211.605469 37.183594 221.039062 50.167969 L 230.507812 63.1875 L 253.277344 63.175781 L 276.058594 63.164062 L 285.339844 50.308594 C 290.4375 43.230469 294.726562 37.453125 294.855469 37.464844 C 294.996094 37.464844 295.382812 37.6875 295.734375 37.957031 C 296.332031 38.414062 295.769531 39.28125 287.835938 50.203125 C 283.136719 56.671875 278.929688 62.4375 278.496094 63.011719 L 277.710938 64.078125 L 281.578125 69.363281 C 295.628906 88.582031 296.109375 89.296875 295.40625 89.824219 C 295.042969 90.105469 294.632812 90.292969 294.492188 90.246094 C 294.351562 90.210938 290.144531 84.539062 285.140625 77.648438 L 276.035156 65.132812 L 253.277344 65.039062 L 230.519531 64.957031 L 223.417969 74.742188 C 210.46875 92.589844 211.980469 90.726562 211.078125 90 Z M 205.429688 85.828125 L 204.644531 85.230469 L 212.085938 75 C 216.175781 69.386719 219.75 64.464844 220.019531 64.089844 C 220.511719 63.398438 220.511719 63.398438 221.226562 64.101562 L 221.941406 64.828125 L 214.3125 75.386719 C 210.105469 81.1875 206.566406 86.050781 206.449219 86.179688 C 206.332031 86.320312 205.875 86.15625 205.429688 85.828125 Z M 292.324219 75.621094 C 288.128906 69.855469 284.683594 64.96875 284.671875 64.78125 C 284.660156 64.582031 284.953125 64.21875 285.328125 63.972656 C 285.960938 63.5625 286.59375 64.335938 293.859375 74.34375 C 301.136719 84.375 301.675781 85.207031 301.078125 85.640625 C 300.714844 85.898438 300.316406 86.121094 300.1875 86.121094 C 300.058594 86.121094 296.519531 81.398438 292.324219 75.621094 Z M 198.949219 37.253906 C 196.992188 36.644531 194.976562 34.582031 194.4375 32.625 C 193.863281 30.539062 193.921875 30.398438 195.445312 30.398438 C 196.6875 30.398438 196.851562 30.503906 197.050781 31.441406 C 197.179688 32.003906 197.613281 32.90625 198.023438 33.421875 C 200.589844 36.691406 207.105469 35.460938 207.105469 31.710938 C 207.105469 30.082031 205.851562 29.214844 201.9375 28.136719 C 197.824219 27.011719 196.441406 26.273438 195.46875 24.667969 C 194.015625 22.289062 195.046875 19.019531 197.683594 17.625 C 199.675781 16.570312 204.140625 16.5 206.15625 17.484375 C 207.75 18.269531 209.132812 19.96875 209.4375 21.515625 C 209.660156 22.628906 209.660156 22.640625 208.207031 22.640625 C 207.164062 22.640625 206.753906 22.488281 206.753906 22.113281 C 206.753906 21.820312 206.308594 21.082031 205.746094 20.460938 C 204.878906 19.488281 204.46875 19.324219 202.628906 19.183594 C 199.558594 18.960938 197.589844 20.15625 197.589844 22.21875 C 197.589844 23.660156 198.738281 24.421875 202.453125 25.453125 C 208.066406 27.023438 209.554688 28.207031 209.8125 31.335938 C 210.210938 36.070312 204.761719 39.035156 198.949219 37.253906 Z M 300.515625 37.253906 C 298.558594 36.644531 296.554688 34.582031 296.003906 32.625 C 295.429688 30.539062 295.488281 30.398438 297.011719 30.398438 C 298.253906 30.398438 298.417969 30.503906 298.617188 31.441406 C 298.746094 32.003906 299.179688 32.90625 299.589844 33.421875 C 302.167969 36.691406 308.671875 35.460938 308.671875 31.710938 C 308.671875 30.082031 307.417969 29.214844 303.503906 28.136719 C 299.390625 27.011719 298.007812 26.273438 297.035156 24.667969 C 295.59375 22.289062 296.613281 19.019531 299.25 17.625 C 301.242188 16.570312 305.71875 16.5 307.722656 17.484375 C 309.316406 18.269531 310.699219 19.96875 311.003906 21.515625 C 311.226562 22.628906 311.226562 22.640625 309.773438 22.640625 C 308.730469 22.640625 308.320312 22.488281 308.320312 22.113281 C 308.320312 21.820312 307.875 21.082031 307.3125 20.460938 C 306.445312 19.488281 306.035156 19.324219 304.195312 19.183594 C 301.125 18.960938 299.15625 20.15625 299.15625 22.21875 C 299.15625 23.660156 300.304688 24.421875 304.019531 25.453125 C 309.632812 27.023438 311.121094 28.207031 311.378906 31.335938 C 311.777344 36.070312 306.328125 39.035156 300.515625 37.253906 Z M 33.703125 28.136719 C 31.453125 27.410156 29.53125 25.6875 28.417969 23.414062 C 27.539062 21.644531 27.421875 21.011719 27.421875 18.046875 C 27.421875 15.09375 27.539062 14.460938 28.417969 12.679688 C 30.539062 8.355469 34.945312 6.539062 39.796875 7.992188 C 43.535156 9.105469 45.832031 12.375 46.183594 17.0625 C 46.675781 23.566406 43.160156 28.148438 37.40625 28.488281 C 36.105469 28.570312 34.570312 28.429688 33.703125 28.136719 Z M 40.558594 24.878906 C 42.257812 23.519531 43.136719 21.726562 43.382812 19.125 C 43.734375 15.117188 42.246094 11.882812 39.457031 10.617188 C 35.8125 8.964844 31.734375 10.828125 30.585938 14.660156 C 28.710938 20.988281 31.851562 26.414062 37.207031 26.074219 C 38.8125 25.96875 39.503906 25.722656 40.558594 24.878906 Z M 7.5 18.046875 L 7.5 7.828125 L 10.324219 7.828125 L 10.324219 16.289062 L 20.90625 16.289062 L 20.90625 7.828125 L 23.71875 7.828125 L 23.71875 28.277344 L 20.90625 28.277344 L 20.90625 18.761719 L 10.324219 18.761719 L 10.324219 28.277344 L 7.5 28.277344 Z M 7.5 18.046875 "/>
</g>
</svg>
